<svg xmlns="http://www.w3.org/2000/svg" xmlns:xlink="http://www.w3.org/1999/xlink" width="100" zoomAndPan="magnify" viewBox="0 0 75 74.999997" height="100" preserveAspectRatio="xMidYMid meet" version="1.2"><defs><clipPath id="d99e6378b7"><path d="M 0.0078125 2.054688 L 74.988281 2.054688 L 74.988281 73.304688 L 0.0078125 73.304688 Z M 0.0078125 2.054688 "/></clipPath></defs><g id="1b1f8896ec"><path style=" stroke:none;fill-rule:evenodd;fill:#ffd37b;fill-opacity:1;" d="M 5.089844 13.648438 C 5.191406 13.738281 6.757812 13.355469 6.882812 13.308594 C 8.160156 12.8125 9.398438 12.175781 10.515625 11.378906 C 12.277344 10.125 13.722656 8.378906 14.371094 6.296875 C 14.507812 5.863281 14.644531 3.847656 15.226562 3.738281 C 15.636719 3.660156 16.015625 5.371094 16.09375 5.589844 C 16.761719 7.457031 17.527344 9.214844 18.832031 10.738281 C 20.09375 12.210938 21.835938 13.285156 23.644531 13.96875 C 23.929688 14.078125 25.5625 14.316406 25.613281 14.710938 C 25.632812 14.84375 24.234375 15.292969 24.101562 15.355469 C 22.664062 16.019531 21.160156 16.671875 19.988281 17.765625 C 18.449219 19.210938 17.105469 21.03125 16.257812 22.96875 C 16.066406 23.398438 15.710938 25.265625 15.242188 25.433594 C 15.011719 25.515625 14.679688 24.421875 14.628906 24.292969 C 14.136719 23.039062 13.761719 21.742188 13.144531 20.539062 C 11.65625 17.640625 8.722656 14.511719 5.28125 14.15625 C 5.183594 14.144531 5.105469 13.742188 5.089844 13.648438 Z M 5.089844 13.648438 C 5.082031 13.644531 5.082031 13.640625 5.085938 13.632812 C 5.085938 13.632812 5.085938 13.636719 5.089844 13.648438 Z M 39.792969 17.765625 C 41.136719 24.453125 44.804688 31.878906 51.5625 34.3125 C 55.570312 35.757812 60.046875 35.886719 64.25 36.199219 C 65.996094 36.328125 67.761719 36.394531 69.5 36.605469 C 69.640625 36.621094 70.910156 36.710938 70.777344 37.070312 C 70.582031 37.59375 69.234375 37.863281 68.792969 37.996094 C 66.683594 38.628906 64.519531 39.085938 62.386719 39.636719 C 55.820312 41.332031 47.882812 42.5625 43.136719 47.871094 C 39.441406 52.003906 38.355469 58.050781 37.671875 63.371094 C 37.488281 64.800781 37.339844 66.234375 36.949219 67.625 C 36.878906 67.871094 36.671875 68.882812 36.292969 68.882812 C 35.742188 68.882812 35.589844 67.421875 35.542969 67.089844 C 35.273438 65.207031 35.183594 63.285156 35.007812 61.390625 C 34.539062 56.371094 33.3125 51.234375 29.695312 47.507812 C 26.320312 44.03125 18.03125 42.601562 13.390625 41.695312 C 11.527344 41.332031 5.984375 40.550781 6.09375 40.117188 C 6.203125 39.679688 11.132812 38.679688 12.851562 38.273438 C 18.328125 36.96875 26.585938 34 30.101562 29.507812 C 32.679688 26.207031 34.335938 22.417969 35.390625 18.390625 C 35.71875 17.136719 36.761719 12.582031 37.496094 12.476562 C 38.226562 12.375 39.398438 15.808594 39.792969 17.765625 Z M 39.792969 17.765625 "/><g clip-rule="nonzero" clip-path="url(#d99e6378b7)"><path style=" stroke:none;fill-rule:evenodd;fill:#e4643a;fill-opacity:1;" d="M 36.5625 5.003906 C 36.558594 4.847656 36.558594 4.765625 36.558594 4.765625 C 36.558594 4.5 36.695312 4.25 36.921875 4.113281 C 37.148438 3.976562 37.429688 3.972656 37.660156 4.101562 L 37.660156 4.109375 C 37.742188 4.15625 38.058594 4.417969 38.097656 5.015625 C 38.121094 5.359375 38.125 5.96875 38.109375 6.753906 C 38.242188 9.902344 38.695312 16.242188 40.234375 21.890625 C 41.351562 25.976562 43.015625 29.714844 45.609375 31.496094 C 47.019531 32.464844 48.867188 33.257812 50.835938 33.902344 C 53.757812 34.855469 56.949219 35.480469 59.425781 35.816406 C 61.824219 36.136719 67.796875 36.394531 71.519531 36.691406 C 73.0625 36.8125 74.230469 36.953125 74.652344 37.09375 C 74.945312 37.195312 74.980469 37.417969 74.988281 37.535156 C 74.992188 37.636719 74.992188 37.902344 74.667969 38.023438 C 74.652344 38.027344 74.617188 38.042969 74.550781 38.050781 C 74.53125 38.054688 74.488281 38.058594 74.429688 38.0625 C 74.265625 38.074219 73.921875 38.097656 73.453125 38.128906 C 71.121094 38.28125 65.640625 38.640625 63.835938 38.972656 C 59.792969 39.722656 55.167969 40.371094 50.941406 41.722656 C 48.097656 42.632812 45.433594 43.859375 43.261719 45.652344 C 40.75 47.726562 39.097656 51.410156 38.011719 55.375 C 36.421875 61.191406 36.050781 67.609375 35.960938 70.566406 C 35.9375 71.339844 35.933594 71.878906 35.929688 72.105469 C 35.917969 73.074219 35.621094 73.304688 35.363281 73.117188 C 35.175781 73.09375 35.011719 72.851562 34.996094 72.300781 C 34.992188 72.265625 34.988281 72.226562 34.988281 72.1875 C 34.960938 71.769531 34.753906 67.988281 34.5 64.507812 C 34.351562 62.457031 34.1875 60.515625 34.035156 59.445312 C 33.726562 57.28125 33.414062 55.050781 32.78125 52.933594 C 32.375 51.570312 31.832031 50.253906 31.058594 49.042969 C 29.410156 46.417969 26.933594 44.792969 24.136719 43.753906 C 19.828125 42.15625 14.746094 41.957031 10.480469 42.011719 C 9.78125 42.019531 8.636719 42.03125 7.378906 42.054688 C 5.398438 42.222656 3.53125 42.359375 2.292969 42.433594 C 1.628906 42.472656 1.144531 42.496094 0.914062 42.5 C -0.476562 42.515625 0.0976562 40.855469 0.28125 40.742188 C 0.527344 40.597656 1.410156 40.417969 2.621094 40.332031 C 4.152344 40.226562 6.292969 40.175781 8.050781 40.144531 C 10.953125 39.902344 13.933594 39.601562 15.34375 39.316406 C 20.503906 38.28125 25.148438 36.175781 28.722656 32.984375 C 32.292969 29.792969 34.792969 25.519531 35.667969 20.15625 C 36.050781 17.824219 36.535156 10.058594 36.613281 6.53125 C 36.585938 5.914062 36.570312 5.4375 36.566406 5.136719 C 36.601562 5.175781 36.652344 5.21875 36.707031 5.257812 C 36.710938 5.089844 36.691406 4.988281 36.605469 4.996094 C 36.585938 5 36.574219 5 36.5625 5.003906 Z M 36.566406 5.136719 C 36.511719 5.078125 36.492188 5.027344 36.5625 5.003906 C 36.5625 5.042969 36.5625 5.089844 36.566406 5.136719 Z M 35.648438 63.71875 C 35.988281 61.046875 36.5 58.039062 37.292969 55.179688 C 38.4375 51.054688 40.15625 47.222656 42.765625 45.054688 C 45.003906 43.1875 47.753906 41.898438 50.691406 40.941406 C 54.945312 39.554688 59.597656 38.863281 63.667969 38.082031 C 64.632812 37.898438 66.632812 37.699219 68.652344 37.523438 C 65.191406 37.328125 61.152344 37.148438 59.28125 36.910156 C 56.742188 36.589844 53.472656 35.980469 50.472656 35.03125 C 48.378906 34.367188 46.414062 33.535156 44.914062 32.523438 C 42.09375 30.621094 40.1875 26.648438 38.941406 22.25 C 38.394531 20.3125 37.972656 18.292969 37.644531 16.34375 C 37.519531 18.089844 37.382812 19.585938 37.253906 20.410156 C 36.351562 26.1875 33.6875 30.800781 29.867188 34.257812 C 26.695312 37.128906 22.71875 39.199219 18.28125 40.460938 C 20.519531 40.734375 22.75 41.207031 24.800781 41.992188 C 27.957031 43.199219 30.703125 45.136719 32.515625 48.144531 C 33.328125 49.515625 33.890625 50.984375 34.292969 52.507812 C 34.875 54.714844 35.125 57.03125 35.371094 59.277344 C 35.476562 60.242188 35.570312 61.902344 35.648438 63.71875 Z M 14.867188 2.921875 C 14.867188 2.90625 14.863281 2.890625 14.863281 2.878906 C 14.863281 2.871094 14.863281 2.867188 14.863281 2.859375 C 14.835938 2.449219 15.136719 2.089844 15.542969 2.058594 C 15.945312 2.023438 16.300781 2.328125 16.339844 2.738281 C 16.339844 2.746094 16.34375 2.75 16.34375 2.757812 L 16.355469 2.757812 C 16.476562 5.015625 16.632812 7.71875 17.648438 9.855469 C 18.285156 11.203125 19.273438 12.316406 20.84375 12.894531 C 21.496094 13.136719 22.140625 13.320312 22.785156 13.472656 C 23.785156 13.703125 24.789062 13.855469 25.839844 14.007812 C 26.828125 14.144531 29.285156 14.425781 30.332031 14.597656 C 30.589844 14.640625 30.777344 14.683594 30.859375 14.710938 C 31.375 14.898438 31.234375 15.335938 31.136719 15.476562 C 31.027344 15.632812 30.601562 15.832031 29.972656 15.875 C 28.953125 15.9375 27.273438 15.835938 26.601562 15.851562 C 25.277344 15.875 23.890625 15.84375 22.542969 16 C 21.667969 16.105469 20.808594 16.285156 19.992188 16.617188 C 18.628906 17.175781 17.742188 18.183594 17.164062 19.390625 C 16.726562 20.316406 16.453125 21.351562 16.304688 22.40625 C 16.175781 23.324219 16.136719 24.253906 16.128906 25.128906 C 16.246094 26.554688 16.28125 27.960938 16.355469 29.226562 C 16.363281 29.332031 16.367188 29.410156 16.367188 29.453125 C 16.445312 30.84375 15.261719 30.1875 15.167969 29.550781 C 14.902344 27.757812 14.660156 25.664062 14.230469 23.628906 C 13.960938 22.359375 13.609375 21.117188 13.09375 20 C 12.273438 18.230469 11.019531 16.777344 8.878906 16.167969 C 8.398438 16.027344 7.902344 15.929688 7.394531 15.859375 C 6.121094 15.679688 4.804688 15.640625 3.566406 15.472656 C 3.109375 15.410156 2.949219 15.125 2.890625 15.019531 C 2.746094 14.769531 2.71875 14.503906 2.828125 14.226562 C 2.867188 14.136719 2.972656 13.816406 3.417969 13.683594 C 3.441406 13.675781 3.503906 13.65625 3.601562 13.640625 C 3.710938 13.625 3.941406 13.59375 4.257812 13.554688 C 5.730469 13.359375 9.207031 12.921875 10.265625 12.429688 C 11.320312 11.941406 12.101562 11.210938 12.695312 10.34375 C 13.667969 8.933594 14.167969 7.179688 14.546875 5.480469 C 14.644531 5.035156 14.761719 4.441406 14.824219 3.871094 C 14.863281 3.535156 14.886719 3.203125 14.867188 2.921875 Z M 15.648438 21.816406 C 15.828125 20.855469 16.089844 19.917969 16.488281 19.070312 C 17.140625 17.691406 18.144531 16.542969 19.691406 15.890625 C 20.570312 15.519531 21.496094 15.308594 22.4375 15.183594 C 23.308594 15.070312 24.195312 15.027344 25.074219 15 C 24.210938 14.890625 23.371094 14.769531 22.539062 14.597656 C 21.839844 14.449219 21.148438 14.269531 20.441406 14.027344 C 18.515625 13.367188 17.277344 12.050781 16.464844 10.4375 C 16.066406 9.648438 15.773438 8.789062 15.554688 7.894531 C 15.203125 9.097656 14.738281 10.253906 14.070312 11.269531 C 13.328125 12.390625 12.339844 13.335938 11.003906 13.988281 C 10.707031 14.132812 10.226562 14.277344 9.65625 14.421875 C 12.242188 15.242188 13.847656 17.007812 14.816406 19.222656 C 15.171875 20.039062 15.441406 20.910156 15.648438 21.816406 Z M 15.648438 21.816406 "/></g></g></svg>