<svg xmlns="http://www.w3.org/2000/svg" xmlns:xlink="http://www.w3.org/1999/xlink" width="100" zoomAndPan="magnify" viewBox="0 0 75 74.999997" height="100" preserveAspectRatio="xMidYMid meet" version="1.2"><g id="fcca8828bb"><path style=" stroke:none;fill-rule:nonzero;fill:#ffec4e;fill-opacity:1;" d="M 42.429688 3.355469 C 43.164062 8.847656 43.191406 9.699219 43.882812 10.230469 C 44.601562 10.78125 45.796875 10.265625 46.027344 9.300781 C 46.128906 8.878906 45.40625 2.152344 45.207031 1.6875 C 44.492188 0 42.160156 1.402344 42.429688 3.355469 Z M 42.429688 3.355469 "/><path style=" stroke:none;fill-rule:nonzero;fill:#ffec4e;fill-opacity:1;" d="M 49.390625 11.636719 C 50.832031 12.460938 51.757812 10.375 53.230469 8.332031 C 55.449219 5.265625 55.667969 4.339844 54.320312 3.691406 C 53.261719 3.183594 52.71875 3.667969 50.285156 7.277344 C 48.289062 10.238281 48.144531 10.925781 49.390625 11.636719 Z M 49.390625 11.636719 "/><path style=" stroke:none;fill-rule:nonzero;fill:#ffec4e;fill-opacity:1;" d="M 37.839844 13.589844 C 33.296875 13.589844 34.105469 13.421875 33.421875 14.101562 C 29.953125 17.550781 41.414062 16.8125 42.195312 15.84375 C 43.558594 14.164062 42.453125 13.589844 37.839844 13.589844 Z M 37.839844 13.589844 "/><path style=" stroke:none;fill-rule:nonzero;fill:#ffec4e;fill-opacity:1;" d="M 52.132812 15.550781 C 51.25 16.382812 51.820312 18.117188 53.398438 17.875 C 55.265625 17.578125 60.167969 17.625 58.199219 15.117188 C 57.457031 14.175781 53.28125 14.476562 52.132812 15.550781 Z M 52.132812 15.550781 "/><path style=" stroke:none;fill-rule:nonzero;fill:#ffec4e;fill-opacity:1;" d="M 47.761719 19.113281 C 47.3125 19.960938 48.929688 23.832031 50.308594 25.21875 C 52.238281 27.15625 53.5 24.847656 51.9375 22.242188 C 50.960938 20.625 49.238281 16.339844 47.761719 19.113281 Z M 47.761719 19.113281 "/><path style=" stroke:none;fill-rule:nonzero;fill:#ffec4e;fill-opacity:1;" d="M 42.117188 18.769531 C 35.773438 24.964844 40.023438 29.277344 41.875 24.65625 C 42.414062 23.308594 43.308594 21.851562 44.269531 20.757812 C 46.03125 18.753906 44.027344 16.90625 42.117188 18.769531 Z M 42.117188 18.769531 "/><path style=" stroke:none;fill-rule:nonzero;fill:#ffec4e;fill-opacity:1;" d="M 54.488281 56.8125 C 58.957031 59.421875 53.929688 45.347656 53.65625 45.058594 C 52.808594 44.152344 51.363281 44.625 51.128906 45.882812 C 50.914062 47.023438 53.800781 56.414062 54.488281 56.8125 Z M 54.488281 56.8125 "/><path style=" stroke:none;fill-rule:nonzero;fill:#ffec4e;fill-opacity:1;" d="M 59.800781 57.257812 C 62.359375 58.335938 66.078125 44.921875 61.742188 48.417969 C 60.066406 49.773438 58.542969 56.726562 59.800781 57.257812 Z M 59.800781 57.257812 "/><path style=" stroke:none;fill-rule:nonzero;fill:#ffec4e;fill-opacity:1;" d="M 65.917969 59.628906 C 69.953125 58.335938 74.804688 57.371094 72.699219 55.269531 C 71.824219 54.394531 60.007812 56.933594 63.011719 59.714844 C 63.605469 60.261719 63.96875 60.253906 65.917969 59.628906 Z M 65.917969 59.628906 "/><path style=" stroke:none;fill-rule:nonzero;fill:#ffec4e;fill-opacity:1;" d="M 43.894531 60.28125 C 43.894531 62.039062 45.039062 61.746094 52.316406 62.023438 C 53.683594 62.082031 54.363281 61.578125 54.351562 60.519531 C 54.335938 59.320312 53.800781 59.144531 49.464844 58.933594 C 44.757812 58.703125 43.894531 58.910156 43.894531 60.28125 Z M 43.894531 60.28125 "/><path style=" stroke:none;fill-rule:nonzero;fill:#ffec4e;fill-opacity:1;" d="M 61.519531 61.996094 C 60.484375 63.3125 61.519531 64.238281 69.339844 68.980469 C 70.90625 69.929688 72.316406 69.542969 72.316406 68.167969 C 72.316406 66.324219 62.519531 60.722656 61.519531 61.996094 Z M 61.519531 61.996094 "/><path style=" stroke:none;fill-rule:nonzero;fill:#ffec4e;fill-opacity:1;" d="M 58.058594 71.648438 C 61.648438 75 60.746094 61.0625 57.550781 64.253906 C 56.949219 64.859375 57.078125 64.277344 57.222656 67.347656 C 57.359375 70.320312 57.515625 71.140625 58.058594 71.648438 Z M 58.058594 71.648438 "/><path style=" stroke:none;fill-rule:nonzero;fill:#ffec4e;fill-opacity:1;" d="M 50.960938 70.917969 C 55.367188 65.230469 56.28125 64.660156 55.199219 63.507812 C 54.175781 62.417969 53.515625 62.890625 49.894531 67.320312 C 45.753906 72.382812 45.601562 72.675781 46.589844 73.664062 C 47.621094 74.691406 48.433594 74.179688 50.960938 70.917969 Z M 50.960938 70.917969 "/><path style=" stroke:none;fill-rule:nonzero;fill:#ffec4e;fill-opacity:1;" d="M 8.761719 28.039062 C 8.371094 25.722656 5.605469 25.769531 5.640625 28.089844 C 5.671875 29.886719 8.453125 38.273438 9.15625 38.679688 C 13.417969 41.164062 9.351562 31.582031 8.761719 28.039062 Z M 8.761719 28.039062 "/><path style=" stroke:none;fill-rule:nonzero;fill:#ffec4e;fill-opacity:1;" d="M 14.144531 38.871094 C 16.246094 39.746094 18.324219 31.761719 17.316406 30.757812 C 16.003906 29.441406 15.09375 30.394531 14.03125 34.210938 C 13.003906 37.875 13.019531 38.414062 14.144531 38.871094 Z M 14.144531 38.871094 "/><path style=" stroke:none;fill-rule:nonzero;fill:#ffec4e;fill-opacity:1;" d="M 20.507812 41.089844 C 23.46875 40.027344 23.933594 39.59375 23.589844 38.226562 C 23.007812 35.882812 13.414062 40.078125 17.289062 41.757812 C 17.914062 42.027344 17.882812 42.035156 20.507812 41.089844 Z M 20.507812 41.089844 "/><path style=" stroke:none;fill-rule:nonzero;fill:#ffec4e;fill-opacity:1;" d="M 3.832031 42.105469 C 7.171875 42.820312 7.6875 42.84375 8.25 42.28125 C 9.144531 41.386719 8.664062 40.246094 7.234375 39.835938 C 1.601562 38.222656 0.0078125 38.304688 0.171875 40.214844 C 0.25 41.179688 0.789062 41.460938 3.832031 42.105469 Z M 3.832031 42.105469 "/><path style=" stroke:none;fill-rule:nonzero;fill:#ffec4e;fill-opacity:1;" d="M 16 44.144531 C 16 45.28125 16.097656 45.347656 20.097656 46.824219 C 23.933594 48.246094 24.808594 48.238281 25.171875 46.796875 C 25.46875 45.621094 24.972656 45.285156 20.984375 43.9375 C 16.957031 42.574219 16 42.613281 16 44.144531 Z M 16 44.144531 "/><path style=" stroke:none;fill-rule:nonzero;fill:#ffec4e;fill-opacity:1;" d="M 7.808594 47.710938 C 10.292969 46.136719 10.785156 45.320312 9.820312 44.355469 C 9.121094 43.652344 8.539062 43.785156 6.226562 45.167969 C 3.144531 47.011719 2.5 47.996094 3.730469 48.972656 C 4.570312 49.628906 4.984375 49.5 7.808594 47.710938 Z M 7.808594 47.710938 "/><path style=" stroke:none;fill-rule:nonzero;fill:#ffec4e;fill-opacity:1;" d="M 14.257812 53.566406 C 17.464844 54.734375 15.363281 45.089844 13.367188 45.089844 C 11.949219 45.089844 11.777344 45.960938 12.5 49.523438 C 13.167969 52.808594 13.351562 53.234375 14.257812 53.566406 Z M 14.257812 53.566406 "/></g></svg>